<svg width="38" height="38" viewBox="0 0 38 38" fill="none" xmlns="http://www.w3.org/2000/svg">
<path d="M19 1C28.9433 1 37 9.04167 37 18.9568C37 28.8719 28.9433 36.9135 19 36.9135C9.05673 36.9135 1 28.8719 1 18.9568C1 9.04167 9.05673 1 19 1Z" stroke="#201F2A" stroke-width="2"/>
<path fill-rule="evenodd" clip-rule="evenodd" d="M19.7248 13.2386L24.7679 18.4239C25.0774 18.7421 25.0774 19.2579 24.7679 19.5761L19.7248 24.7614C19.4153 25.0795 18.9135 25.0795 18.6041 24.7614C18.2946 24.4432 18.2946 23.9273 18.6041 23.6091L22.2944 19.8148H11V18.1852H22.2944L18.6041 14.3909C18.2946 14.0727 18.2946 13.5568 18.6041 13.2386C18.9135 12.9205 19.4153 12.9205 19.7248 13.2386Z" fill="black"/>
</svg>
