<svg width="38" height="38" viewBox="0 0 38 38" fill="none" xmlns="http://www.w3.org/2000/svg">
<path d="M19 36.9131C9.05673 36.9131 1 28.8714 1 18.9563C1 9.04121 9.05673 0.999544 19 0.999544C28.9433 0.999545 37 9.04121 37 18.9563C37 28.8714 28.9433 36.9131 19 36.9131Z" stroke="#201F2A" stroke-width="2"/>
<path fill-rule="evenodd" clip-rule="evenodd" d="M18.2752 24.6744L13.2321 19.4892C12.9226 19.171 12.9226 18.6551 13.2321 18.3369L18.2752 13.1517C18.5847 12.8335 19.0865 12.8335 19.3959 13.1517C19.7054 13.4699 19.7054 13.9858 19.3959 14.304L15.7056 18.0983L27 18.0983L27 19.7279L15.7056 19.7279L19.3959 23.5222C19.7054 23.8404 19.7054 24.3563 19.3959 24.6744C19.0865 24.9926 18.5847 24.9926 18.2752 24.6744Z" fill="black"/>
</svg>
