<svg width="15" height="15" viewBox="0 0 15 15" fill="none" xmlns="http://www.w3.org/2000/svg">
<path d="M10.7969 0.282227H3.76562C2.83322 0.282227 1.93901 0.652716 1.2797 1.31219C0.620395 1.97166 0.25 2.8661 0.25 3.79874V10.8318C0.25 11.2936 0.340934 11.7508 0.517611 12.1775C0.694288 12.6041 0.953247 12.9918 1.2797 13.3183C1.93901 13.9778 2.83322 14.3483 3.76562 14.3483H10.7969C11.2586 14.3483 11.7157 14.2573 12.1422 14.0806C12.5688 13.9039 12.9563 13.6449 13.2828 13.3183C13.6093 12.9918 13.8682 12.6041 14.0449 12.1775C14.2216 11.7508 14.3125 11.2936 14.3125 10.8318V3.79874C14.3125 3.33695 14.2216 2.87967 14.0449 2.45303C13.8682 2.02639 13.6093 1.63873 13.2828 1.31219C12.9563 0.985651 12.5688 0.726627 12.1422 0.549905C11.7157 0.373184 11.2586 0.282227 10.7969 0.282227ZM7.28125 10.6911C6.61374 10.6911 5.96122 10.4931 5.4062 10.1222C4.85118 9.75124 4.4186 9.224 4.16316 8.60714C3.90771 7.99028 3.84087 7.31151 3.9711 6.65666C4.10133 6.00181 4.42276 5.40029 4.89476 4.92817C5.36677 4.45605 5.96813 4.13453 6.62282 4.00427C7.27751 3.87401 7.95611 3.94086 8.57281 4.19637C9.18951 4.45189 9.71661 4.88458 10.0875 5.43973C10.4583 5.99489 10.6562 6.64758 10.6562 7.31526C10.6562 8.21059 10.3007 9.06925 9.66774 9.70235C9.0348 10.3354 8.17636 10.6911 7.28125 10.6911ZM11.2188 4.22072C10.9962 4.22072 10.7787 4.15473 10.5937 4.03108C10.4087 3.90743 10.2645 3.73169 10.1794 3.52607C10.0942 3.32045 10.072 3.09419 10.1154 2.87591C10.1588 2.65762 10.2659 2.45712 10.4233 2.29974C10.5806 2.14237 10.781 2.0352 10.9993 1.99178C11.2175 1.94836 11.4437 1.97064 11.6493 2.05581C11.8548 2.14098 12.0305 2.28521 12.1542 2.47026C12.2778 2.65532 12.3438 2.87288 12.3438 3.09544C12.3438 3.39388 12.2252 3.6801 12.0142 3.89114C11.8033 4.10217 11.5171 4.22072 11.2188 4.22072Z" fill="#201F2A"/>
</svg>
