<svg width="42" height="60" viewBox="0 0 42 60" fill="none" xmlns="http://www.w3.org/2000/svg">
<path fill-rule="evenodd" clip-rule="evenodd" d="M21.0635 41.271C21.0625 41.271 21.0616 41.271 21.0606 41.271V59.5106C20.5361 59.5106 19.7786 58.753 19.7786 58.753C-2.07289 33.6239 0.475748 21.092 0.546876 20.7653L0.546875 20.7588C0.546875 9.43022 9.73051 0.246582 21.0591 0.246582C32.3877 0.246582 41.5713 9.43022 41.5713 20.7588C41.5713 20.7624 41.5713 20.7659 41.5713 20.7695C41.5736 20.7624 41.5747 20.7588 41.5747 20.7588C41.5747 20.7588 44.4884 33.2876 22.3445 58.753C22.3445 58.753 21.587 59.5106 21.0625 59.5106V41.271C21.0628 41.271 21.0632 41.271 21.0635 41.271ZM33.1802 20.7588C33.1802 27.4529 27.7535 32.8796 21.0593 32.8796C14.3652 32.8796 8.93847 27.4529 8.93847 20.7588C8.93847 14.0646 14.3652 8.63789 21.0593 8.63789C27.7535 8.63789 33.1802 14.0646 33.1802 20.7588Z" fill="#FB5235"/>
</svg>
