<svg width="96" height="95" viewBox="0 0 96 95">
    <path d="M85.6407 57.6105L85.8033 57.6541L85.8431 57.5053L85.6667 57.4581C75.796 54.8073 67.3793 48.3502 62.2625 39.5029C57.1457 30.6555 55.7464 20.14 58.3715 10.2624C55.7048 20.134 49.2303 28.5442 40.3691 33.647C31.5079 38.7499 20.9841 40.1284 11.1076 37.48L10.945 37.4364L10.9052 37.5852L11.0816 37.6325C20.9563 40.2803 29.3774 46.7373 34.497 55.5867C39.6166 64.4361 41.0166 74.9549 38.3897 84.8353C41.055 74.9653 47.5269 66.5556 56.3853 61.4516C65.2437 56.3477 75.765 54.9663 85.6407 57.6105Z" />
</svg>