<svg width="18" height="18" viewBox="0 0 18 18" fill="none" xmlns="http://www.w3.org/2000/svg">
<path fill-rule="evenodd" clip-rule="evenodd" d="M9 18C13.9706 18 18 13.9706 18 9C18 4.02944 13.9706 0 9 0C4.02944 0 0 4.02944 0 9C0 13.9706 4.02944 18 9 18ZM8.34863 11H9.89355L10.2422 4H8L8.34863 11ZM8 12.8936C8 13.1715 8.10938 13.4154 8.32812 13.625C8.54688 13.8346 8.8112 13.9395 9.12109 13.9395C9.43099 13.9395 9.69531 13.8346 9.91406 13.625C10.1328 13.4154 10.2422 13.1715 10.2422 12.8936C10.2422 12.611 10.1328 12.3649 9.91406 12.1553C9.69531 11.9456 9.43099 11.8408 9.12109 11.8408C8.8112 11.8408 8.54688 11.9456 8.32812 12.1553C8.10938 12.3649 8 12.611 8 12.8936Z" fill="#FEB251"/>
</svg>
